<svg width="26" height="26" viewBox="0 0 26 26" fill="none" xmlns="http://www.w3.org/2000/svg">
<path d="M4.52173 2.26086L6.06637 23.6808V23.7391H19.3643L20.9089 2.32754V2.26086H4.52173ZM18.8179 23.139H6.61686L5.45837 7.09493H6.09513L7.14269 21.2346C7.14883 21.309 7.18212 21.3785 7.23607 21.4293C7.29001 21.4802 7.36072 21.5088 7.43437 21.5096H7.45902C7.49735 21.507 7.5348 21.4967 7.5692 21.4793C7.6036 21.4619 7.63428 21.4379 7.65947 21.4084C7.68467 21.379 7.70388 21.3448 7.71601 21.3078C7.72814 21.2708 7.73295 21.2318 7.73015 21.1929L6.68259 7.09493H19.9764L18.8179 23.139ZM20.0175 6.49484H6.6374L6.40734 3.36937C6.40012 3.29312 6.3648 3.22244 6.30844 3.17145C6.25209 3.12047 6.17885 3.09292 6.10335 3.09432C6.02597 3.10175 5.95446 3.13935 5.90388 3.19921C5.8533 3.25907 5.82761 3.33651 5.83221 3.41521L6.06226 6.49901H5.41729L5.15438 2.85679H20.2804L20.0175 6.49484Z" fill="#407BFF"/>
<path d="M9.22952 10.0621C9.42127 10.0621 9.60872 10.0044 9.76815 9.89631C9.92759 9.78824 10.0519 9.63465 10.1252 9.45494C10.1986 9.27523 10.2178 9.07748 10.1804 8.88671C10.143 8.69593 10.0507 8.52069 9.91507 8.38315C9.77948 8.24561 9.60673 8.15194 9.41866 8.11399C9.2306 8.07604 9.03566 8.09552 8.8585 8.16996C8.68135 8.24439 8.52993 8.37045 8.4234 8.53218C8.31687 8.69391 8.26001 8.88406 8.26001 9.07858C8.26001 9.33941 8.36215 9.58956 8.54397 9.774C8.72579 9.95844 8.97239 10.0621 9.22952 10.0621ZM9.22952 8.69102C9.30508 8.69102 9.37895 8.71375 9.44178 8.75633C9.50461 8.79892 9.55357 8.85945 9.58249 8.93026C9.61141 9.00108 9.61897 9.07901 9.60423 9.15418C9.58949 9.22936 9.5531 9.29842 9.49967 9.35262C9.44624 9.40682 9.37817 9.44373 9.30405 9.45869C9.22994 9.47364 9.15313 9.46597 9.08331 9.43663C9.0135 9.4073 8.95384 9.35763 8.91185 9.29389C8.86987 9.23016 8.84747 9.15523 8.84747 9.07858C8.84747 8.97579 8.88772 8.87721 8.95937 8.80453C9.03102 8.73185 9.12819 8.69102 9.22952 8.69102Z" fill="#407BFF"/>
<path d="M9.22542 13.2584C9.22785 13.4525 9.28688 13.6416 9.39506 13.8017C9.50325 13.9619 9.65574 14.086 9.83333 14.1584C10.0109 14.2308 10.2057 14.2483 10.393 14.2086C10.5804 14.1689 10.752 14.0738 10.8862 13.9354C11.0204 13.7969 11.1111 13.6213 11.1471 13.4306C11.1831 13.2399 11.1626 13.0427 11.0882 12.8638C11.0139 12.6849 10.889 12.5323 10.7293 12.4253C10.5696 12.3183 10.3822 12.2616 10.1908 12.2624C10.0628 12.2629 9.93616 12.2892 9.8182 12.3396C9.70024 12.3901 9.5933 12.4637 9.50354 12.5563C9.41379 12.6489 9.343 12.7586 9.29527 12.8791C9.24753 12.9996 9.22379 13.1285 9.22542 13.2584ZM10.5729 13.2584C10.5729 13.335 10.5505 13.41 10.5085 13.4737C10.4665 13.5374 10.4068 13.5871 10.337 13.6164C10.2672 13.6458 10.1904 13.6534 10.1163 13.6385C10.0422 13.6235 9.9741 13.5866 9.92067 13.5324C9.86724 13.4782 9.83085 13.4092 9.81611 13.334C9.80137 13.2588 9.80894 13.1809 9.83785 13.1101C9.86677 13.0392 9.91574 12.9787 9.97857 12.9361C10.0414 12.8935 10.1153 12.8708 10.1908 12.8708C10.2921 12.8708 10.3893 12.9116 10.461 12.9843C10.5326 13.057 10.5729 13.1556 10.5729 13.2584Z" fill="#407BFF"/>
<path d="M16.1148 13.2834C16.3065 13.2834 16.494 13.2257 16.6534 13.1176C16.8128 13.0096 16.9371 12.856 17.0105 12.6763C17.0839 12.4965 17.1031 12.2988 17.0657 12.108C17.0282 11.9172 16.9359 11.742 16.8003 11.6045C16.6647 11.4669 16.492 11.3733 16.3039 11.3353C16.1158 11.2974 15.9209 11.3168 15.7438 11.3913C15.5666 11.4657 15.4152 11.5918 15.3087 11.7535C15.2021 11.9152 15.1453 12.1054 15.1453 12.2999C15.1453 12.5607 15.2474 12.8109 15.4292 12.9953C15.611 13.1798 15.8576 13.2834 16.1148 13.2834ZM16.1148 11.9165C16.1905 11.9165 16.2645 11.9393 16.3275 11.9821C16.3904 12.0249 16.4393 12.0857 16.4681 12.1567C16.4969 12.2278 16.5042 12.3059 16.4892 12.3812C16.4741 12.4565 16.4373 12.5255 16.3834 12.5796C16.3296 12.6336 16.2611 12.6702 16.1868 12.6847C16.1124 12.6991 16.0354 12.6909 15.9657 12.6609C15.896 12.6309 15.8366 12.5806 15.7951 12.5163C15.7536 12.452 15.7319 12.3767 15.7327 12.2999C15.7338 12.1978 15.7745 12.1003 15.8461 12.0285C15.9176 11.9568 16.0142 11.9165 16.1148 11.9165Z" fill="#407BFF"/>
<path d="M12.7378 11.4289C12.9296 11.4289 13.117 11.3712 13.2765 11.2632C13.4359 11.1551 13.5602 11.0015 13.6335 10.8218C13.7069 10.6421 13.7261 10.4444 13.6887 10.2536C13.6513 10.0628 13.559 9.88756 13.4234 9.75002C13.2878 9.61247 13.115 9.51881 12.927 9.48086C12.7389 9.44291 12.544 9.46239 12.3668 9.53682C12.1897 9.61126 12.0382 9.73732 11.9317 9.89905C11.8252 10.0608 11.7683 10.2509 11.7683 10.4454C11.7683 10.7063 11.8705 10.9564 12.0523 11.1409C12.2341 11.3253 12.4807 11.4289 12.7378 11.4289ZM12.7378 10.0579C12.8134 10.0579 12.8873 10.0806 12.9501 10.1232C13.0129 10.1658 13.0619 10.2263 13.0908 10.2971C13.1197 10.3679 13.1273 10.4459 13.1125 10.5211C13.0978 10.5962 13.0614 10.6653 13.008 10.7195C12.9545 10.7737 12.8865 10.8106 12.8124 10.8256C12.7382 10.8405 12.6614 10.8328 12.5916 10.8035C12.5218 10.7742 12.4621 10.7245 12.4202 10.6608C12.3782 10.597 12.3558 10.5221 12.3558 10.4454C12.353 10.3928 12.3608 10.3402 12.3787 10.2907C12.3967 10.2413 12.4244 10.1961 12.4601 10.1578C12.4959 10.1196 12.539 10.0892 12.5867 10.0684C12.6345 10.0476 12.6859 10.037 12.7378 10.037V10.0579Z" fill="#407BFF"/>
<path d="M10.8892 17.0048C10.8932 17.1645 10.9436 17.3196 11.034 17.4504C11.1245 17.5813 11.251 17.6822 11.3976 17.7405C11.5443 17.7988 11.7047 17.812 11.8587 17.7783C12.0128 17.7447 12.1536 17.6657 12.2635 17.5512C12.3735 17.4368 12.4478 17.292 12.4771 17.135C12.5064 16.9779 12.4894 16.8156 12.4282 16.6683C12.367 16.5211 12.2643 16.3954 12.1331 16.3069C12.0018 16.2185 11.8478 16.1714 11.6902 16.1713C11.4759 16.1767 11.2722 16.267 11.1225 16.4227C10.9728 16.5784 10.8891 16.7873 10.8892 17.0048ZM11.6902 16.7881C11.7325 16.7881 11.7738 16.8008 11.8089 16.8246C11.8441 16.8484 11.8714 16.8822 11.8876 16.9218C11.9038 16.9614 11.908 17.005 11.8998 17.047C11.8915 17.0891 11.8712 17.1277 11.8413 17.158C11.8114 17.1883 11.7734 17.2089 11.7319 17.2173C11.6905 17.2257 11.6475 17.2214 11.6085 17.205C11.5695 17.1886 11.5361 17.1608 11.5126 17.1252C11.4891 17.0895 11.4766 17.0476 11.4766 17.0048C11.4766 16.9473 11.4991 16.8922 11.5392 16.8515C11.5792 16.8109 11.6336 16.7881 11.6902 16.7881Z" fill="#407BFF"/>
<path d="M14.7633 16.1005C14.9278 16.1062 15.0902 16.0618 15.2295 15.9729C15.3688 15.884 15.4785 15.7547 15.5445 15.6017C15.6105 15.4488 15.6297 15.2793 15.5996 15.1152C15.5695 14.951 15.4916 14.7998 15.3758 14.6812C15.26 14.5625 15.1118 14.4819 14.9503 14.4497C14.7888 14.4175 14.6216 14.4352 14.4701 14.5006C14.3187 14.566 14.1901 14.6759 14.101 14.8163C14.0119 14.9567 13.9664 15.1209 13.9705 15.2878C13.9756 15.5003 14.0605 15.7027 14.2079 15.8538C14.3553 16.0048 14.5539 16.0931 14.7633 16.1005ZM14.7633 15.0711C14.82 15.0711 14.8743 15.094 14.9144 15.1346C14.9544 15.1752 14.9769 15.2304 14.9769 15.2878C14.9769 15.3453 14.9544 15.4004 14.9144 15.4411C14.8743 15.4817 14.82 15.5045 14.7633 15.5045C14.7063 15.5045 14.6515 15.4818 14.6108 15.4413C14.5701 15.4008 14.5467 15.3457 14.5456 15.2878C14.5456 15.259 14.5512 15.2305 14.5622 15.2039C14.5732 15.1774 14.5893 15.1533 14.6096 15.1331C14.6299 15.1129 14.6539 15.0971 14.6803 15.0864C14.7067 15.0758 14.7349 15.0706 14.7633 15.0711Z" fill="#407BFF"/>
<path d="M16.4557 9.37444C16.6182 9.37444 16.777 9.32556 16.9121 9.23398C17.0472 9.14239 17.1525 9.01223 17.2147 8.85993C17.2769 8.70764 17.2932 8.54006 17.2615 8.37838C17.2298 8.2167 17.1515 8.0682 17.0366 7.95163C16.9217 7.83507 16.7753 7.75569 16.6159 7.72353C16.4566 7.69138 16.2914 7.70788 16.1412 7.77096C15.9911 7.83405 15.8628 7.94087 15.7725 8.07793C15.6822 8.215 15.634 8.37614 15.634 8.54098C15.634 8.76203 15.7206 8.97402 15.8747 9.13032C16.0288 9.28663 16.2377 9.37444 16.4557 9.37444ZM16.4557 8.34512C16.4874 8.3359 16.5209 8.3343 16.5534 8.34044C16.5859 8.34658 16.6166 8.36028 16.643 8.38048C16.6694 8.40068 16.6908 8.42682 16.7055 8.45684C16.7203 8.48686 16.7279 8.51994 16.7279 8.55348C16.7279 8.58702 16.7203 8.6201 16.7055 8.65012C16.6908 8.68014 16.6694 8.70628 16.643 8.72648C16.6166 8.74668 16.5859 8.76039 16.5534 8.76652C16.5209 8.77266 16.4874 8.77106 16.4557 8.76185C16.4239 8.77106 16.3904 8.77266 16.3579 8.76652C16.3254 8.76039 16.2947 8.74668 16.2683 8.72648C16.2419 8.70628 16.2205 8.68014 16.2058 8.65012C16.191 8.6201 16.1834 8.58702 16.1834 8.55348C16.1834 8.51994 16.191 8.48686 16.2058 8.45684C16.2205 8.42682 16.2419 8.40068 16.2683 8.38048C16.2947 8.36028 16.3254 8.34658 16.3579 8.34044C16.3904 8.3343 16.4239 8.3359 16.4557 8.34512Z" fill="#407BFF"/>
<path d="M8.42442 22.093C8.38757 22.1103 8.35461 22.135 8.32759 22.1657C8.30056 22.1964 8.28006 22.2324 8.26734 22.2715C8.25462 22.3106 8.24997 22.3519 8.25367 22.3929C8.25738 22.4339 8.26935 22.4737 8.28886 22.5098C8.31411 22.5584 8.35189 22.5992 8.39818 22.6279C8.44448 22.6565 8.49756 22.6718 8.55177 22.6723C8.59728 22.6736 8.64241 22.6636 8.68323 22.6431C9.93842 21.9908 11.3276 21.6481 12.7379 21.643C14.2304 21.665 15.7021 22.0013 17.0596 22.6306C17.1134 22.6591 17.1744 22.6701 17.2345 22.6622C17.2946 22.6543 17.3508 22.6279 17.3956 22.5866C17.4404 22.5452 17.4716 22.4909 17.485 22.4309C17.4984 22.371 17.4933 22.3083 17.4705 22.2514C17.4415 22.1775 17.3856 22.1178 17.3143 22.0847C15.8771 21.4178 14.3183 21.0629 12.7379 21.0429C11.2387 21.0442 9.76093 21.404 8.42442 22.093Z" fill="#407BFF"/>
</svg>
