<svg width="16" height="16" viewBox="0 0 16 16" fill="none" xmlns="http://www.w3.org/2000/svg">
<g id="pencil-square/outline">
<path id="Vector" d="M11.2413 2.99133L12.366 1.866C12.6005 1.63155 12.9184 1.49983 13.25 1.49983C13.5816 1.49983 13.8995 1.63155 14.134 1.866C14.3685 2.10045 14.5002 2.41843 14.5002 2.75C14.5002 3.08156 14.3685 3.39955 14.134 3.634L7.05467 10.7133C6.70222 11.0656 6.26758 11.3245 5.79 11.4667L4 12L4.53333 10.21C4.67552 9.73242 4.93442 9.29778 5.28667 8.94533L11.2413 2.99133ZM11.2413 2.99133L13 4.75M12 9.33333V12.5C12 12.8978 11.842 13.2794 11.5607 13.5607C11.2794 13.842 10.8978 14 10.5 14H3.5C3.10218 14 2.72064 13.842 2.43934 13.5607C2.15804 13.2794 2 12.8978 2 12.5V5.5C2 5.10217 2.15804 4.72064 2.43934 4.43934C2.72064 4.15803 3.10218 4 3.5 4H6.66667" stroke="#9EBBFF" stroke-linecap="round" stroke-linejoin="round"/>
</g>
</svg>
