<svg width="16" height="16" viewBox="0 0 16 16" fill="none" xmlns="http://www.w3.org/2000/svg">
<g id="trash/outline">
<path id="Vector" d="M9.82667 6L9.596 12M6.404 12L6.17333 6M12.8187 3.86C13.0467 3.89466 13.2733 3.93133 13.5 3.97066M12.8187 3.86L12.1067 13.1153C12.0776 13.4921 11.9074 13.8441 11.63 14.1008C11.3527 14.3575 10.9886 14.5001 10.6107 14.5H5.38933C5.0114 14.5001 4.64735 14.3575 4.36999 14.1008C4.09262 13.8441 3.92239 13.4921 3.89333 13.1153L3.18133 3.86M12.8187 3.86C12.0492 3.74367 11.2758 3.65539 10.5 3.59533M3.18133 3.86C2.95333 3.894 2.72667 3.93066 2.5 3.97M3.18133 3.86C3.95076 3.74368 4.72416 3.6554 5.5 3.59533M10.5 3.59533V2.98466C10.5 2.198 9.89333 1.542 9.10667 1.51733C8.36908 1.49376 7.63092 1.49376 6.89333 1.51733C6.10667 1.542 5.5 2.19866 5.5 2.98466V3.59533M10.5 3.59533C8.83581 3.46672 7.16419 3.46672 5.5 3.59533" stroke="#EF5050" stroke-linecap="round" stroke-linejoin="round"/>
</g>
</svg>
