<svg width="1404" height="582" viewBox="0 0 1404 582" fill="none" xmlns="http://www.w3.org/2000/svg">
<g clip-path="url(#clip0_146_955)">
<path d="M1340.95 15.1488C1340.73 17.9081 1339.69 20.5381 1337.96 22.7062C1336.24 24.8743 1333.92 26.4833 1331.28 27.3297C1328.64 28.1761 1325.82 28.2219 1323.15 27.4614C1320.49 26.7008 1318.12 25.1681 1316.32 23.0568C1314.53 20.9456 1313.41 18.3507 1313.09 15.6002C1312.78 12.8498 1313.28 10.0673 1314.55 7.60446C1315.81 5.14163 1317.78 3.10908 1320.2 1.76381C1322.62 0.418552 1325.38 -0.179051 1328.14 0.046575C1331.84 0.352964 1335.27 2.11548 1337.67 4.94706C1340.07 7.77864 1341.25 11.4478 1340.95 15.1488Z" fill="#ECF2FF"/>
<path d="M601.954 34.1488C601.727 36.9081 600.686 39.5381 598.965 41.7062C597.243 43.8743 594.917 45.4833 592.281 46.3297C589.645 47.1761 586.817 47.2219 584.154 46.4614C581.492 45.7008 579.115 44.1681 577.324 42.0568C575.533 39.9456 574.408 37.3507 574.092 34.6002C573.775 31.8498 574.281 29.0673 575.546 26.6045C576.811 24.1416 578.778 22.1091 581.198 20.7638C583.618 19.4186 586.382 18.8209 589.141 19.0466C592.842 19.353 596.27 21.1155 598.672 23.9471C601.075 26.7786 602.255 30.4478 601.954 34.1488Z" fill="#ECF2FF"/>
<path d="M65.9703 128.739C65.8243 130.512 65.1556 132.203 64.0487 133.597C62.9418 134.991 61.4466 136.025 59.7519 136.569C58.0572 137.113 56.2393 137.143 54.5279 136.654C52.8165 136.165 51.2884 135.179 50.137 133.822C48.9856 132.465 48.2624 130.797 48.059 129.029C47.8556 127.261 48.1809 125.472 48.994 123.889C49.8071 122.305 51.0714 120.999 52.6271 120.134C54.1827 119.269 55.9599 118.885 57.7338 119.03C60.1129 119.227 62.3165 120.36 63.8608 122.18C65.4051 124.001 66.1638 126.359 65.9703 128.739Z" fill="#ECF2FF"/>
<path d="M102.954 334.149C102.727 336.908 101.686 339.538 99.9646 341.706C98.2429 343.874 95.9169 345.483 93.2807 346.33C90.6446 347.176 87.8166 347.222 85.1545 346.461C82.4923 345.701 80.1154 344.168 78.3242 342.057C76.5331 339.946 75.4082 337.351 75.0918 334.6C74.7753 331.85 75.2815 329.067 76.5463 326.604C77.8111 324.142 79.7778 322.109 82.1977 320.764C84.6176 319.419 87.382 318.821 90.1415 319.047C93.8422 319.353 97.2701 321.115 99.6723 323.947C102.075 326.779 103.255 330.448 102.954 334.149Z" fill="#C6D7FF"/>
<path d="M739.954 522.149C739.727 524.908 738.686 527.538 736.965 529.706C735.243 531.874 732.917 533.483 730.281 534.33C727.645 535.176 724.817 535.222 722.154 534.461C719.492 533.701 717.115 532.168 715.324 530.057C713.533 527.946 712.408 525.351 712.092 522.6C711.775 519.85 712.281 517.067 713.546 514.604C714.811 512.142 716.778 510.109 719.198 508.764C721.618 507.419 724.382 506.821 727.141 507.047C730.842 507.353 734.27 509.115 736.672 511.947C739.075 514.779 740.255 518.448 739.954 522.149Z" fill="#C6D7FF"/>
<path d="M1368.95 509.149C1368.73 511.908 1367.69 514.538 1365.96 516.706C1364.24 518.874 1361.92 520.483 1359.28 521.33C1356.64 522.176 1353.82 522.222 1351.15 521.461C1348.49 520.701 1346.12 519.168 1344.32 517.057C1342.53 514.946 1341.41 512.351 1341.09 509.6C1340.78 506.85 1341.28 504.067 1342.55 501.604C1343.81 499.142 1345.78 497.109 1348.2 495.764C1350.62 494.419 1353.38 493.821 1356.14 494.047C1359.84 494.353 1363.27 496.115 1365.67 498.947C1368.07 501.779 1369.25 505.448 1368.95 509.149Z" fill="#C6D7FF"/>
<path opacity="0.7" d="M714.199 120.836H712.624C710.112 120.663 707.658 119.994 705.406 118.868C703.153 117.741 701.146 116.18 699.5 114.273C697.881 112.373 696.656 110.171 695.896 107.793C695.135 105.416 694.855 102.911 695.071 100.425C695.376 96.7482 696.746 93.2401 699.012 90.3289C701.278 87.4176 704.342 85.2292 707.831 84.0306C711.32 82.832 715.082 82.6753 718.658 83.5794C722.234 84.4835 725.47 86.4093 727.97 89.1219C730.471 91.8345 732.127 95.2164 732.738 98.8548C733.349 102.493 732.887 106.231 731.409 109.611C729.931 112.992 727.502 115.869 724.416 117.891C721.331 119.913 717.724 120.994 714.035 121L714.199 120.836ZM714.199 85.2642C710.468 85.2827 706.854 86.5731 703.954 88.9223C701.055 91.2716 699.042 94.5393 698.25 98.1863C697.457 101.833 697.931 105.642 699.594 108.983C701.257 112.324 704.009 114.998 707.396 116.565C710.783 118.131 714.603 118.495 718.225 117.598C721.847 116.7 725.055 114.595 727.32 111.628C729.585 108.662 730.77 105.012 730.681 101.281C730.593 97.5499 729.234 93.9605 726.831 91.1053C725.431 89.4456 723.715 88.0805 721.783 87.0891C719.851 86.0977 717.742 85.4997 715.577 85.3298L714.199 85.2642Z" fill="#9EBBFF"/>
<path opacity="0.7" d="M210.157 166.87H208.914C206.93 166.734 204.993 166.206 203.215 165.317C201.436 164.427 199.852 163.194 198.553 161.689C197.275 160.189 196.307 158.451 195.707 156.574C195.107 154.697 194.885 152.72 195.056 150.756C195.297 147.854 196.378 145.084 198.167 142.786C199.956 140.488 202.375 138.76 205.13 137.814C207.884 136.867 210.854 136.744 213.677 137.457C216.501 138.171 219.055 139.692 221.029 141.833C223.003 143.975 224.311 146.645 224.793 149.517C225.275 152.389 224.911 155.34 223.744 158.009C222.577 160.678 220.659 162.949 218.223 164.545C215.788 166.142 212.94 166.995 210.028 167L210.157 166.87ZM210.157 138.788C207.211 138.802 204.358 139.821 202.069 141.676C199.78 143.53 198.191 146.11 197.566 148.989C196.94 151.868 197.314 154.875 198.627 157.513C199.94 160.15 202.112 162.262 204.786 163.498C207.46 164.735 210.476 165.023 213.336 164.314C216.195 163.606 218.728 161.943 220.516 159.601C222.304 157.259 223.24 154.378 223.17 151.432C223.099 148.487 222.027 145.653 220.13 143.399C219.024 142.089 217.67 141.011 216.145 140.228C214.62 139.446 212.954 138.973 211.245 138.839L210.157 138.788Z" fill="#9EBBFF"/>
<path opacity="0.7" d="M19.1992 581.836H17.6243C15.1117 581.663 12.6582 580.994 10.4055 579.868C8.15284 578.741 6.14568 577.18 4.50002 575.273C2.88114 573.373 1.65594 571.171 0.895529 568.793C0.135122 566.416 -0.145291 563.911 0.0706056 561.425C0.37642 557.748 1.74586 554.24 4.01178 551.329C6.27771 548.418 9.34208 546.229 12.8308 545.031C16.3195 543.832 20.0817 543.675 23.658 544.579C27.2344 545.483 30.4702 547.409 32.9705 550.122C35.4707 552.835 37.1273 556.216 37.7379 559.855C38.3485 563.493 37.8868 567.231 36.4091 570.611C34.9314 573.992 32.5016 576.869 29.4164 578.891C26.3312 580.913 22.724 581.994 19.0352 582L19.1992 581.836ZM19.1992 546.264C15.4676 546.283 11.8538 547.573 8.95421 549.922C6.05459 552.272 4.04242 555.539 3.24974 559.186C2.45706 562.833 2.93123 566.642 4.59404 569.983C6.25685 573.324 9.00888 575.998 12.396 577.565C15.7832 579.131 19.6031 579.495 23.2252 578.598C26.8474 577.7 30.0555 575.595 32.32 572.628C34.5845 569.662 35.7702 566.012 35.6814 562.281C35.5925 558.55 34.2345 554.961 31.8313 552.105C30.431 550.446 28.7151 549.081 26.7833 548.089C24.8514 547.098 22.742 546.5 20.5773 546.33L19.1992 546.264Z" fill="#C6D7FF"/>
<path opacity="0.7" d="M670.262 352.784H668.19C664.884 352.557 661.655 351.677 658.691 350.195C655.727 348.712 653.086 346.657 650.921 344.148C648.791 341.649 647.179 338.751 646.178 335.623C645.178 332.495 644.809 329.199 645.093 325.927C645.495 321.09 647.297 316.474 650.279 312.643C653.26 308.813 657.292 305.933 661.883 304.356C666.473 302.779 671.423 302.573 676.129 303.762C680.835 304.952 685.092 307.486 688.382 311.055C691.672 314.624 693.852 319.074 694.655 323.862C695.459 328.649 694.851 333.567 692.907 338.015C690.962 342.463 687.765 346.248 683.706 348.909C679.646 351.57 674.9 352.992 670.046 353L670.262 352.784ZM670.262 305.979C665.352 306.004 660.597 307.701 656.782 310.793C652.967 313.884 650.319 318.183 649.276 322.982C648.233 327.781 648.857 332.792 651.045 337.188C653.233 341.584 656.854 345.103 661.311 347.164C665.767 349.225 670.793 349.704 675.56 348.523C680.326 347.343 684.547 344.572 687.526 340.669C690.506 336.766 692.066 331.963 691.949 327.054C691.832 322.145 690.045 317.422 686.883 313.665C685.041 311.481 682.783 309.685 680.241 308.38C677.699 307.076 674.924 306.289 672.075 306.065L670.262 305.979Z" fill="#C6D7FF"/>
<path opacity="0.7" d="M1382.23 348.81H1380.41C1377.5 348.61 1374.66 347.836 1372.05 346.531C1369.44 345.227 1367.12 343.419 1365.21 341.211C1363.34 339.011 1361.92 336.461 1361.04 333.708C1360.16 330.956 1359.83 328.055 1360.08 325.176C1360.44 320.919 1362.02 316.857 1364.65 313.486C1367.27 310.115 1370.82 307.581 1374.86 306.193C1378.9 304.806 1383.25 304.624 1387.39 305.671C1391.53 306.718 1395.28 308.948 1398.18 312.089C1401.07 315.229 1402.99 319.145 1403.7 323.358C1404.4 327.571 1403.87 331.899 1402.16 335.813C1400.45 339.727 1397.63 343.058 1394.06 345.4C1390.49 347.742 1386.31 348.993 1382.04 349L1382.23 348.81ZM1382.23 307.622C1377.91 307.643 1373.73 309.137 1370.37 311.857C1367.01 314.578 1364.68 318.361 1363.76 322.584C1362.85 326.807 1363.39 331.217 1365.32 335.085C1367.24 338.954 1370.43 342.051 1374.35 343.864C1378.28 345.678 1382.7 346.1 1386.89 345.061C1391.09 344.022 1394.8 341.583 1397.42 338.149C1400.05 334.714 1401.42 330.488 1401.32 326.168C1401.21 321.847 1399.64 317.691 1396.86 314.385C1395.24 312.463 1393.25 310.883 1391.01 309.735C1388.78 308.587 1386.33 307.894 1383.83 307.698L1382.23 307.622Z" fill="#9EBBFF"/>
</g>
<defs>
<clipPath id="clip0_146_955">
<rect width="1404" height="582" fill="white"/>
</clipPath>
</defs>
</svg>
