<svg aria-hidden="true" style="position:absolute;width:0;height:0;overflow:hidden" xmlns="http://www.w3.org/2000/svg">
  <defs>
    <symbol id="arrow-down" viewBox="0 0 32 32">
      <path d="M16.706 21.707a1.002 1.002 0 0 1-1.414 0l-10-10a.996.996 0 0 1 .025-1.388 1.002 1.002 0 0 1 1.388-.025l9.293 9.293 9.293-9.293a1.013 1.013 0 0 1 .714-.318.993.993 0 0 1 .725.293.992.992 0 0 1 .293.725 1.001 1.001 0 0 1-.318.714l-10 10z"/>
    </symbol>
    
    <!-- <symbol id="arrow-left" viewBox="0 0 32 32">
      <path d="M9.706 10.293a1.002 1.002 0 0 1 0 1.414L6.413 15H28a.997.997 0 0 1 1 1 1 1 0 0 1-1 1H6.413l3.293 3.293a1.002 1.002 0 0 1 .025 1.439.992.992 0 0 1-.725.293 1.001 1.001 0 0 1-.714-.318l-5-5a1.002 1.002 0 0 1 0-1.414l5-5a1.002 1.002 0 0 1 1.414 0z"/>
    </symbol> -->


   <symbol id="arrow-left" viewBox="0 0 14 14">
       <path
   
        d="M4.50344 7.30915C4.42151 7.22712 4.37549 7.11593 4.37549 6.99999C4.37549 6.88405 4.42151 6.77285 4.50344 6.69082L8.87844 2.31582C8.91849 2.27284 8.96679 2.23836 9.02046 2.21445C9.07412 2.19054 9.13206 2.17768 9.1908 2.17664C9.24954 2.17561 9.30789 2.18641 9.36237 2.20842C9.41684 2.23042 9.46633 2.26317 9.50788 2.30472C9.54942 2.34626 9.58217 2.39575 9.60417 2.45022C9.62618 2.5047 9.63698 2.56305 9.63595 2.62179C9.63491 2.68054 9.62205 2.73847 9.59814 2.79214C9.57423 2.8458 9.53975 2.8941 9.49677 2.93415L5.43094 6.99999L9.49677 11.0658C9.53975 11.1059 9.57423 11.1542 9.59814 11.2078C9.62205 11.2615 9.63491 11.3194 9.63595 11.3782C9.63698 11.4369 9.62618 11.4953 9.60417 11.5498C9.58217 11.6042 9.54942 11.6537 9.50788 11.6953C9.46633 11.7368 9.41684 11.7696 9.36237 11.7916C9.30789 11.8136 9.24954 11.8244 9.1908 11.8233C9.13206 11.8223 9.07412 11.8094 9.02046 11.7855C8.96679 11.7616 8.91849 11.7271 8.87844 11.6842L4.50344 7.30915Z"
        fill="#407BFF"
      />
    </symbol>





   <symbol id="arrow-right" viewBox="0 0 14 14">
       <path

        d="M9.49656 7.30915C9.57849 7.22712 9.62451 7.11593 9.62451 6.99999C9.62451 6.88405 9.57849 6.77285 9.49656 6.69082L5.12156 2.31582C5.08151 2.27284 5.03321 2.23836 4.97954 2.21445C4.92588 2.19054 4.86794 2.17768 4.8092 2.17664C4.75046 2.17561 4.69211 2.18641 4.63763 2.20842C4.58316 2.23042 4.53367 2.26317 4.49212 2.30472C4.45058 2.34626 4.41783 2.39575 4.39583 2.45022C4.37382 2.5047 4.36302 2.56305 4.36405 2.62179C4.36509 2.68054 4.37795 2.73847 4.40186 2.79214C4.42577 2.8458 4.46025 2.8941 4.50323 2.93415L8.56906 6.99999L4.50323 11.0658C4.46025 11.1059 4.42577 11.1542 4.40186 11.2078C4.37795 11.2615 4.36509 11.3194 4.36405 11.3782C4.36302 11.4369 4.37382 11.4953 4.39583 11.5498C4.41783 11.6042 4.45058 11.6537 4.49212 11.6953C4.53367 11.7368 4.58316 11.7696 4.63763 11.7916C4.69211 11.8136 4.75046 11.8244 4.8092 11.8233C4.86794 11.8223 4.92588 11.8094 4.97954 11.7855C5.03321 11.7616 5.08151 11.7271 5.12156 11.6842L9.49656 7.30915Z"
        fill="#407BFF"
      />
    </symbol>


    

    <symbol id="arrow-up" viewBox="0 0 32 32">
      <path stroke-linejoin="round" stroke-linecap="round" stroke-width="1.333" d="M4 22v3a3.004 3.004 0 0 0 3 3h18a3.004 3.004 0 0 0 3-3v-3M10 10l6-6m0 0 6 6m-6-6v18"/>
    </symbol>

    <symbol id="eye" viewBox="0 0 32 32">
      <path stroke-linejoin="round" stroke-linecap="round" stroke-width="1.333" d="M2.715 16.429a1.35 1.35 0 0 1 0-.852C4.564 10.013 9.814 6 16 6c6.184 0 11.431 4.009 13.284 9.571.093.276.093.575 0 .852C27.436 21.987 22.187 26 16 26c-6.184 0-11.432-4.009-13.285-9.571z"/>
      <path stroke-linejoin="round" stroke-linecap="round" stroke-width="1.333" d="M20 16a4.003 4.003 0 0 1-4 4 4.003 4.003 0 0 1-4-4 4.003 4.003 0 0 1 4-4 4.003 4.003 0 0 1 4 4z"/>
    </symbol>

    <symbol id="eye-slash" viewBox="0 0 32 32">
      <path stroke-linejoin="round" stroke-linecap="round" stroke-width="1.333" d="M5.307 10.964A13.978 13.978 0 0 0 2.579 16C4.302 21.784 9.659 26 16 26c1.324 0 2.604-.184 3.817-.527M8.304 8.304A13.936 13.936 0 0 1 16 6c6.341 0 11.697 4.216 13.42 9.997a14.033 14.033 0 0 1-5.724 7.699M8.304 8.304 4 4m4.304 4.304 4.867 4.867m10.525 10.525L28 28m-4.304-4.304-4.867-4.867A3.996 3.996 0 0 0 20 16a4.001 4.001 0 0 0-4-4 4.017 4.017 0 0 0-2.829 1.172m5.657 5.656-5.655-5.655"/>
    </symbol>

    <symbol id="logout" viewBox="0 0 32 32">
      <path stroke-linejoin="round" stroke-linecap="round" stroke-width="1.333" d="M21 12V7a3.004 3.004 0 0 0-3-3h-8a3.004 3.004 0 0 0-3 3v18a3.004 3.004 0 0 0 3 3h8a3.004 3.004 0 0 0 3-3v-5m4 0 4-4m0 0-4-4m4 4H12"/>
    </symbol>

    <symbol id="minus" viewBox="0 0 32 32">
      <path d="M7 16a.997.997 0 0 1 1-1h16a.997.997 0 0 1 1 1 .997.997 0 0 1-1 1H8a.997.997 0 0 1-1-1z"/>
    </symbol>

    <symbol id="pencil-square" viewBox="0 0 32 32">
      <path stroke-linejoin="round" stroke-linecap="round" stroke-width="1.333" d="m22.483 5.983 2.249-2.251a2.5 2.5 0 0 1 3.536 3.536L14.109 21.427a6.002 6.002 0 0 1-2.529 1.507L8 24.001l1.067-3.58a5.992 5.992 0 0 1 1.507-2.529L22.483 5.984zm0 0L26 9.5m-2 9.167V25a3.004 3.004 0 0 1-3 3H7a3.004 3.004 0 0 1-3-3V11a3.004 3.004 0 0 1 3-3h6.333"/>
    </symbol>

    <symbol id="plus" viewBox="0 0 32 32">
      <path stroke-linejoin="round" stroke-linecap="round" stroke-width="1.333" d="M16 8v16m8-8H8"/>
    </symbol>

    <symbol id="plus-circle" viewBox="0 0 32 32">
      <path stroke-linejoin="round" stroke-linecap="round" stroke-width="1.333" d="M16 12v8m4-4h-8m16 0a12 12 0 1 1-24.003.002A12 12 0 0 1 28.002 16z"/>
    </symbol>

    <symbol id="settings" viewBox="0 0 32 32">
      <path stroke-linejoin="round" stroke-linecap="round" stroke-width="1.333" d="M12.792 5.253A1.5 1.5 0 0 1 14.272 4h3.457c.733 0 1.36.531 1.48 1.253l.284 1.708c.084.499.417.915.86 1.16.099.053.196.111.293.169.432.261.96.343 1.433.165l1.623-.608a1.498 1.498 0 0 1 1.826.654l1.728 2.996c.177.308.24.668.177 1.018s-.249.665-.523.89l-1.337 1.103c-.391.32-.584.817-.575 1.323.002.113.002.227 0 .34-.009.504.184 1 .573 1.32l1.34 1.104c.565.467.712 1.272.347 1.907l-1.731 2.996a1.499 1.499 0 0 1-1.826.655l-1.623-.608c-.473-.177-1-.096-1.435.165a8.597 8.597 0 0 1-.293.171c-.441.244-.775.66-.859 1.159l-.284 1.707a1.5 1.5 0 0 1-1.48 1.255h-3.459c-.733 0-1.36-.531-1.48-1.253l-.284-1.708c-.083-.499-.416-.915-.859-1.16a9.308 9.308 0 0 1-.293-.169c-.433-.261-.96-.343-1.435-.165l-1.623.608a1.5 1.5 0 0 1-1.825-.653L4.74 20.506a1.5 1.5 0 0 1 .347-1.908l1.339-1.103c.389-.32.583-.817.573-1.323a9.634 9.634 0 0 1 0-.34c.009-.504-.184-1-.573-1.32l-1.339-1.104a1.502 1.502 0 0 1-.347-1.907l1.729-2.996a1.497 1.497 0 0 1 1.826-.654l1.621.608c.475.177 1.001.096 1.435-.165.096-.059.195-.116.293-.171.443-.244.776-.66.859-1.159l.285-1.708z"/>
      <path stroke-linejoin="round" stroke-linecap="round" stroke-width="1.333" d="M20 16a4.003 4.003 0 0 1-4 4 4.003 4.003 0 0 1-4-4 4.003 4.003 0 0 1 4-4 4.003 4.003 0 0 1 4 4z"/>
    </symbol>

    <symbol id="trash" viewBox="0 0 32 32">
      <path stroke-linejoin="round" stroke-linecap="round" stroke-width="1.333" d="m19.653 12-.461 12m-6.384 0-.461-12m13.29-4.28c.456.069.909.143 1.363.221m-1.363-.221-1.424 18.511A3 3 0 0 1 21.221 29H10.778a2.996 2.996 0 0 1-2.992-2.769L6.362 7.72m19.275 0A63.917 63.917 0 0 0 21 7.191M6.363 7.72c-.456.068-.909.141-1.363.22m1.363-.22A63.917 63.917 0 0 1 11 7.191m10 0V5.97c0-1.573-1.213-2.885-2.787-2.935a69.515 69.515 0 0 0-4.427 0c-1.573.049-2.787 1.363-2.787 2.935v1.221m10.001 0a64.947 64.947 0 0 0-10 0"/>
    </symbol>

    <symbol id="user" viewBox="0 0 32 32">
      <path stroke-width="1.333" d="M31.333 16c0 8.468-6.865 15.333-15.333 15.333S.667 24.468.667 16 7.532.667 16 .667 31.333 7.532 31.333 16z"/>
      <path stroke-linejoin="round" stroke-linecap="round" stroke-width="1.333" d="M20.001 9.436c0 1.088-.421 2.132-1.172 2.901S17.061 13.539 16 13.539c-1.061 0-2.079-.432-2.829-1.202s-1.172-1.813-1.172-2.901c0-1.088.421-2.132 1.172-2.901S14.939 5.333 16 5.333c1.061 0 2.079.432 2.829 1.202s1.172 1.813 1.172 2.901zM8 24.881c.034-2.153.892-4.205 2.389-5.715S13.901 16.81 16 16.81c2.099 0 4.115.846 5.611 2.356s2.355 3.562 2.389 5.715a18.732 18.732 0 0 1-8 1.785c-2.855 0-5.564-.639-8-1.785z"/>
    </symbol>

    <symbol id="close" viewBox="0 0 32 32">
      <path fill="none" stroke="#407bff" style="stroke: var(--color1, #407bff)" stroke-linejoin="round" stroke-linecap="round" stroke-miterlimit="4" stroke-width="2" d="M8 24l16-16M8 8l16 16"></path>
    </symbol>

    <symbol id="icon-plus" viewBox="0 0 32 32">
      <path
       d="M16 7c0.265 0 0.52 0.105 0.707 0.293s0.293 0.442 0.293 0.707v7h7c0.265 0 0.52 0.105 0.707 0.293s0.293 0.442 0.293 0.707-0.105 0.52-0.293 0.707c-0.187 0.188-0.442 0.293-0.707 0.293h-7v7c0 0.265-0.105 0.52-0.293 0.707s-0.442 0.293-0.707 0.293-0.52-0.105-0.707-0.293c-0.188-0.187-0.293-0.442-0.293-0.707v-7h-7c-0.265 0-0.52-0.105-0.707-0.293s-0.293-0.442-0.293-0.707 0.105-0.52 0.293-0.707c0.188-0.188 0.442-0.293 0.707-0.293h7v-7c0-0.265 0.105-0.52 0.293-0.707s0.442-0.293 0.707-0.293z"></path>
    </symbol>

    <symbol id="icon-Vector" viewBox="0 0 32 32">
      <path stroke-linejoin="round" stroke-linecap="round" stroke-miterlimit="4" stroke-width="3.4286" d="M2.286 29.714l27.429-27.429M2.286 2.286l27.429 27.429"></path>
    </symbol >


    <symbol id="cup" viewBox="0 0 26 26">
      <path fill="#407bff" stroke="#407bff" stroke-width="0.2" d="m.522.26 1.544 21.42v.06h13.298L16.91.327V.26H.522ZM14.818 21.14H2.617L1.458 5.095h.637l1.048 14.14c.006.074.04.143.093.194.054.051.125.08.198.08h.025a.287.287 0 0 0 .2-.1.296.296 0 0 0 .071-.216L2.683 5.095h13.293l-1.158 16.044Zm1.2-16.644H2.637l-.23-3.126a.306.306 0 0 0-.1-.198.297.297 0 0 0-.205-.077.299.299 0 0 0-.2.105.307.307 0 0 0-.07.216l.23 3.084h-.646L1.154.857H16.28l-.263 3.638Z" /><path d="M5.23 8.062a.96.96 0 0 0 .538-.166.997.997 0 0 0 .147-1.513.965.965 0 0 0-1.056-.213.973.973 0 0 0-.436.362.994.994 0 0 0 .121 1.242.963.963 0 0 0 .686.288Zm0-1.371a.378.378 0 0 1 .352.24.393.393 0 0 1-.082.422.38.38 0 0 1-.653-.274.39.39 0 0 1 .112-.274.38.38 0 0 1 .27-.114ZM5.225 11.258a.993.993 0 0 0 .17.544.957.957 0 0 0 1.491.134.988.988 0 0 0 .202-1.072.98.98 0 0 0-.359-.439.96.96 0 0 0-1.434.454.996.996 0 0 0-.07.38Zm1.348 0a.392.392 0 0 1-.236.358.377.377 0 0 1-.416-.084.39.39 0 0 1 .27-.661.38.38 0 0 1 .27.113.39.39 0 0 1 .112.274ZM12.115 11.283a.96.96 0 0 0 .538-.165.997.997 0 0 0 .147-1.513.965.965 0 0 0-1.056-.214.972.972 0 0 0-.435.363.993.993 0 0 0 .12 1.241.962.962 0 0 0 .686.288Zm0-1.367a.379.379 0 0 1 .353.24.393.393 0 0 1-.085.424.38.38 0 0 1-.65-.28.39.39 0 0 1 .113-.272.38.38 0 0 1 .269-.112ZM8.738 9.429a.96.96 0 0 0 .538-.166.997.997 0 0 0 .147-1.513.965.965 0 0 0-1.056-.213.973.973 0 0 0-.435.362.994.994 0 0 0 .12 1.242.963.963 0 0 0 .686.288Zm0-1.371a.378.378 0 0 1 .353.24.393.393 0 0 1-.083.421.38.38 0 0 1-.652-.274.393.393 0 0 1 .23-.377c.048-.02.1-.031.152-.03v.02ZM6.89 15.005a.82.82 0 0 0 .144.445.803.803 0 0 0 .825.328.797.797 0 0 0 .405-.227.816.816 0 0 0 .164-.883.811.811 0 0 0-.295-.361.793.793 0 0 0-.443-.136.816.816 0 0 0-.568.252.84.84 0 0 0-.233.582Zm.8-.217a.212.212 0 0 1 .198.134.22.22 0 0 1-.047.236.213.213 0 0 1-.233.047.215.215 0 0 1-.131-.2c0-.058.022-.113.062-.154a.212.212 0 0 1 .151-.063ZM10.763 14.1a.814.814 0 0 0 .781-.498.844.844 0 0 0-.168-.92.818.818 0 0 0-.906-.181.825.825 0 0 0-.369.315.842.842 0 0 0 .107 1.038c.147.15.346.24.555.247Zm0-1.029c.057 0 .111.023.151.064a.218.218 0 0 1 0 .306.212.212 0 0 1-.303 0 .222.222 0 0 1-.065-.153.22.22 0 0 1 .064-.155.214.214 0 0 1 .153-.062ZM12.456 7.374a.813.813 0 0 0 .456-.14.845.845 0 0 0 .124-1.282.818.818 0 0 0-.895-.181.825.825 0 0 0-.368.307.842.842 0 0 0 .102 1.052.816.816 0 0 0 .58.244Zm0-1.029a.21.21 0 0 1 .187.035.215.215 0 0 1 .085.173.218.218 0 0 1-.085.173.212.212 0 0 1-.187.036.21.21 0 0 1-.25-.112.218.218 0 0 1 .152-.31.21.21 0 0 1 .098.005ZM4.424 20.093a.297.297 0 0 0-.17.3c.003.04.015.08.035.117a.304.304 0 0 0 .263.162.275.275 0 0 0 .131-.029 8.86 8.86 0 0 1 4.055-1c1.492.022 2.964.358 4.322.988a.292.292 0 0 0 .336-.044.301.301 0 0 0 .074-.336.307.307 0 0 0-.156-.166 11.207 11.207 0 0 0-4.576-1.042 9.43 9.43 0 0 0-4.314 1.05Z" fill="#407bff"  />
    </symbol>

    <symbol id="github" viewBox="0 0 32 32">
    <path d="M16 0.396c-8.84 0-16 7.164-16 16 0 7.071 4.584 13.067 10.94 15.18 0.8 0.151 1.093-0.344 1.093-0.769 0-0.38-0.013-1.387-0.020-2.72-4.451 0.965-5.389-2.147-5.389-2.147-0.728-1.847-1.78-2.34-1.78-2.34-1.449-0.992 0.112-0.972 0.112-0.972 1.607 0.112 2.451 1.648 2.451 1.648 1.427 2.447 3.745 1.74 4.66 1.331 0.144-1.035 0.556-1.74 1.013-2.14-3.553-0.4-7.288-1.776-7.288-7.907 0-1.747 0.62-3.173 1.647-4.293-0.18-0.404-0.72-2.031 0.14-4.235 0 0 1.34-0.429 4.4 1.64 1.28-0.356 2.64-0.532 4-0.54 1.36 0.008 2.72 0.184 4 0.54 3.040-2.069 4.38-1.64 4.38-1.64 0.86 2.204 0.32 3.831 0.16 4.235 1.020 1.12 1.64 2.547 1.64 4.293 0 6.147-3.74 7.5-7.3 7.893 0.56 0.48 1.080 1.461 1.080 2.96 0 2.141-0.020 3.861-0.020 4.381 0 0.42 0.28 0.92 1.1 0.76 6.401-2.099 10.981-8.099 10.981-15.159 0-8.836-7.164-16-16-16z"></path>
    </symbol>

    <symbol id="linkedin" viewBox="0 0 32 32">
    <path  d="M27.263 27.269h-4.739v-7.425c0-1.771-0.036-4.049-2.469-4.049-2.471 0-2.848 1.927-2.848 3.919v7.556h-4.739v-15.269h4.552v2.081h0.061c0.636-1.2 2.183-2.467 4.493-2.467 4.801 0 5.689 3.16 5.689 7.273zM7.116 9.911c-1.525 0-2.751-1.235-2.751-2.753 0-1.517 1.227-2.751 2.751-2.751 1.52 0 2.752 1.233 2.752 2.751 0 1.519-1.233 2.753-2.752 2.753zM9.492 27.269h-4.752v-15.269h4.752zM29.633 0h-27.272c-1.305 0-2.361 1.032-2.361 2.305v27.389c0 1.275 1.056 2.305 2.361 2.305h27.268c1.304 0 2.371-1.031 2.371-2.305v-27.389c0-1.273-1.067-2.305-2.371-2.305z"></path>
    </symbol>

    <symbol id="heart" viewBox="0 0 28 28">
    <path d="M14 26c-0.25 0-0.5-0.094-0.688-0.281l-9.75-9.406c-0.125-0.109-3.563-3.25-3.563-7 0-4.578 2.797-7.313 7.469-7.313 2.734 0 5.297 2.156 6.531 3.375 1.234-1.219 3.797-3.375 6.531-3.375 4.672 0 7.469 2.734 7.469 7.313 0 3.75-3.437 6.891-3.578 7.031l-9.734 9.375c-0.187 0.187-0.438 0.281-0.688 0.281z"></path>
    </symbol>

  </defs>
</svg>








